<svg xmlns="http://www.w3.org/2000/svg" width="66" height="66" viewBox="0 0 66 66">
  <defs>
    <style>
      .cls-1 {
        fill: #ecf0fa;
      }

      .cls-2 {
        fill: #496dd4;
      }
    </style>
  </defs>
  <g id="그룹_43" data-name="그룹 43" transform="translate(-0.278 -0.022)">
    <circle id="타원_16" data-name="타원 16" class="cls-1" cx="33" cy="33" r="33" transform="translate(0.278 0.023)"/>
    <path id="money-check-alt-solid" class="cls-2" d="M28.045,32H1.476A1.476,1.476,0,0,0,0,33.476V51.189a1.476,1.476,0,0,0,1.476,1.476H28.045a1.476,1.476,0,0,0,1.476-1.476V33.476A1.476,1.476,0,0,0,28.045,32ZM8.118,45.648v.744a.369.369,0,0,1-.369.369H7.011a.369.369,0,0,1-.369-.369V45.64A2.641,2.641,0,0,1,5.2,45.117a.37.37,0,0,1-.026-.56l.542-.517a.379.379,0,0,1,.467-.034,1.111,1.111,0,0,0,.591.172h1.3a.58.58,0,0,0,.544-.608.6.6,0,0,0-.4-.587L6.13,42.359a2.088,2.088,0,0,1-1.457-2,2.054,2.054,0,0,1,1.968-2.079v-.744a.369.369,0,0,1,.369-.369h.738a.369.369,0,0,1,.369.369v.751a2.638,2.638,0,0,1,1.447.524.37.37,0,0,1,.026.56l-.542.517a.379.379,0,0,1-.467.034,1.106,1.106,0,0,0-.591-.172h-1.3a.58.58,0,0,0-.544.608.6.6,0,0,0,.4.587l2.076.623a2.088,2.088,0,0,1,1.457,2,2.054,2.054,0,0,1-1.968,2.079Zm11.07-.732a.369.369,0,0,1-.369.369H13.654a.369.369,0,0,1-.369-.369v-.738a.369.369,0,0,1,.369-.369H18.82a.369.369,0,0,1,.369.369Zm7.38,0a.369.369,0,0,1-.369.369H22.51a.369.369,0,0,1-.369-.369v-.738a.369.369,0,0,1,.369-.369H26.2a.369.369,0,0,1,.369.369Zm0-4.428a.369.369,0,0,1-.369.369H13.654a.369.369,0,0,1-.369-.369v-.738a.369.369,0,0,1,.369-.369H26.2a.369.369,0,0,1,.369.369Z" transform="translate(17.642 -8.961)"/>
  </g>
</svg>
