<svg xmlns="http://www.w3.org/2000/svg" width="66" height="66" viewBox="0 0 66 66">
  <defs>
    <style>
      .cls-1 {
        fill: #f3effc;
      }

      .cls-2 {
        fill: #8b60e5;
      }
    </style>
  </defs>
  <g id="그룹_45" data-name="그룹 45" transform="translate(-755 -507)">
    <circle id="타원_14" data-name="타원 14" class="cls-1" cx="33" cy="33" r="33" transform="translate(755 507)"/>
    <path id="ticket-alt-solid" class="cls-2" d="M6.512,68.884h16.28v9.768H6.512Zm20.35,4.884A2.442,2.442,0,0,0,29.3,76.21v4.884a2.442,2.442,0,0,1-2.442,2.442H2.442A2.442,2.442,0,0,1,0,81.094V76.21a2.442,2.442,0,0,0,2.442-2.442A2.442,2.442,0,0,0,0,71.326V66.442A2.442,2.442,0,0,1,2.442,64h24.42A2.442,2.442,0,0,1,29.3,66.442v4.884A2.442,2.442,0,0,0,26.862,73.768ZM24.42,68.477A1.221,1.221,0,0,0,23.2,67.256H6.1a1.221,1.221,0,0,0-1.221,1.221V79.059A1.221,1.221,0,0,0,6.1,80.28H23.2a1.221,1.221,0,0,0,1.221-1.221Z" transform="translate(773 466.464)"/>
  </g>
</svg>
