<svg xmlns="http://www.w3.org/2000/svg" width="66" height="66" viewBox="0 0 66 66">
  <defs>
    <style>
      .cls-1 {
        opacity: 0.6;
      }

      .cls-2 {
        fill: #ecf8ff;
      }

      .cls-3 {
        fill: #44c0ff;
      }
    </style>
  </defs>
  <g id="그룹_40" data-name="그룹 40" class="cls-1">
    <circle id="타원_13" data-name="타원 13" class="cls-2" cx="33" cy="33" r="33"/>
    <path id="hourglass-half-solid" class="cls-3" d="M18.784,0H1.252A1.252,1.252,0,0,0,0,1.252v.835A1.252,1.252,0,0,0,1.252,3.339c0,4.746,2.662,8.752,6.305,10.018C3.914,14.624,1.252,18.63,1.252,23.376A1.252,1.252,0,0,0,0,24.628v.835a1.252,1.252,0,0,0,1.252,1.252H18.784a1.252,1.252,0,0,0,1.252-1.252v-.835a1.252,1.252,0,0,0-1.252-1.252c0-4.746-2.662-8.752-6.305-10.018,3.643-1.266,6.305-5.272,6.305-10.018a1.252,1.252,0,0,0,1.252-1.252V1.252A1.252,1.252,0,0,0,18.784,0ZM14.867,20.037H5.17c.89-2.442,2.718-4.174,4.848-4.174S13.977,17.594,14.867,20.037Zm0-13.358H5.17a9.789,9.789,0,0,1-.578-3.339H15.445A9.79,9.79,0,0,1,14.868,6.679Z" transform="translate(22.432 19.284)"/>
  </g>
</svg>
