<svg xmlns="http://www.w3.org/2000/svg" width="66" height="66" viewBox="0 0 66 66">
  <defs>
    <style>
      .cls-1 {
        opacity: 0.6;
      }

      .cls-2 {
        fill: #fff5e9;
      }

      .cls-3 {
        fill: #ffa326;
      }
    </style>
  </defs>
  <g id="그룹_39" data-name="그룹 39" class="cls-1" transform="translate(0 -0.022)">
    <circle id="타원_16" data-name="타원 16" class="cls-2" cx="33" cy="33" r="33" transform="translate(0 0.023)"/>
    <path id="shopping-cart-solid" class="cls-3" d="M25.271,14.418l2.262-9.953a1.148,1.148,0,0,0-1.12-1.4H7.618L7.18.918A1.148,1.148,0,0,0,6.055,0H1.148A1.148,1.148,0,0,0,0,1.148v.766A1.148,1.148,0,0,0,1.148,3.062H4.492L7.854,19.5a2.68,2.68,0,1,0,3.208.41H21.094a2.679,2.679,0,1,0,3.043-.5l.264-1.162a1.148,1.148,0,0,0-1.12-1.4H10.437l-.313-1.531H24.151A1.148,1.148,0,0,0,25.271,14.418Z" transform="translate(16.446 22.092)"/>
  </g>
</svg>
