<svg xmlns="http://www.w3.org/2000/svg" viewBox="0 0 57.24 11.89"><defs><style>.cls-1{fill:#426afc;}</style></defs><g id="레이어_2" data-name="레이어 2"><g id="레이어_4" data-name="레이어 4"><rect class="cls-1" x="35.96" width="1.76" height="1.76" rx="0.19"/><rect class="cls-1" x="35.96" y="2.65" width="1.75" height="6.53" rx="0.19"/><path class="cls-1" d="M17,3A3.07,3.07,0,0,0,13.9,6.5a3.13,3.13,0,0,0,3.16,2.68h.16A.18.18,0,0,0,17.4,9V7.64a.19.19,0,0,0-.18-.19H17A1.35,1.35,0,0,1,15.63,6.1,1.35,1.35,0,0,1,17,4.74a1.43,1.43,0,0,1,1.42,1.42V9a.18.18,0,0,0,.18.19H20A.19.19,0,0,0,20.16,9V6.22A3.2,3.2,0,0,0,17,3Z"/><path class="cls-1" d="M6.28,3.17A3.09,3.09,0,0,0,3.2.08h-3A.19.19,0,0,0,0,.27V8.92a.18.18,0,0,0,.19.19H1.57a.18.18,0,0,0,.18-.19V6.25H3.43l.9,2.81a.18.18,0,0,0,.18.13H6a.19.19,0,0,0,.15-.08.18.18,0,0,0,0-.16L5.07,5.62A3.12,3.12,0,0,0,6.28,3.17ZM1.75,1.81H3.17A1.36,1.36,0,0,1,4.53,3.17a1.38,1.38,0,0,1-.39,1,1.4,1.4,0,0,1-1,.39H1.75Z"/><path class="cls-1" d="M27,.08H25.59a.2.2,0,0,0-.19.19V3H24a3.08,3.08,0,1,0,0,6.16h.26A.18.18,0,0,0,24.4,9V7.64a.19.19,0,0,0-.18-.19H24A1.35,1.35,0,0,1,22.63,6.1a1.38,1.38,0,0,1,.39-1,1.35,1.35,0,0,1,1-.4H25.4V9a.19.19,0,0,0,.19.19H27A.19.19,0,0,0,27.16,9V.27A.2.2,0,0,0,27,.08Z"/><path class="cls-1" d="M35.06,7.43H30.72V.27a.2.2,0,0,0-.19-.19H29.15A.2.2,0,0,0,29,.27V9a.19.19,0,0,0,.19.19h5.91A.19.19,0,0,0,35.25,9V7.62A.19.19,0,0,0,35.06,7.43Z"/><path class="cls-1" d="M48.2,3a2.68,2.68,0,0,0-1,.19V.27A.19.19,0,0,0,47,.08H45.62a.19.19,0,0,0-.19.19V9a.18.18,0,0,0,.19.19H47A.18.18,0,0,0,47.18,9V5.84a1.11,1.11,0,0,1,1.89-.78,1.14,1.14,0,0,1,.32.78V9a.18.18,0,0,0,.19.19h1.21A.19.19,0,0,0,51,9V5.79A2.78,2.78,0,0,0,48.2,3Z"/><path class="cls-1" d="M10.08,3A3.09,3.09,0,0,0,7,6.1v.05A3.11,3.11,0,0,0,9,9a2.79,2.79,0,0,0,.85.17H13A.17.17,0,0,0,13.16,9V7.79A.16.16,0,0,0,13,7.62H9.78A1.57,1.57,0,0,1,8.66,6.16V6.1a1.41,1.41,0,0,1,2.57-.82h0a1.33,1.33,0,0,1,.2.49H9.92a.16.16,0,0,0-.16.16v.79a.16.16,0,0,0,.16.16h3a.15.15,0,0,0,.16-.13,3.19,3.19,0,0,0,.08-.62v0a2.73,2.73,0,0,0-.05-.5A3,3,0,0,0,10.08,3Z"/><path class="cls-1" d="M44.22,4.56a3,3,0,0,0-.36-.5S43.8,4,43.78,4a3.75,3.75,0,0,0-.53-.44A3.16,3.16,0,0,0,41.51,3a3.09,3.09,0,0,0-3.06,3.48,3.15,3.15,0,0,0,3.16,2.68h.16A.19.19,0,0,0,42,9V7.65a.2.2,0,0,0-.19-.19h-.23a1.35,1.35,0,0,1-1.36-1.35,1.38,1.38,0,0,1,.39-1,1.42,1.42,0,0,1,2,0,1.38,1.38,0,0,1,.42,1V9s0,0,0,.05l0,0v.2a1.27,1.27,0,0,1-1.39,1.09,1.62,1.62,0,0,1-1-.34l-.13-.13a.17.17,0,0,0-.14-.07.2.2,0,0,0-.14.06l-.9.89a.16.16,0,0,0-.05.14.2.2,0,0,0,.06.14,3.43,3.43,0,0,0,2.29.82A2.91,2.91,0,0,0,44.71,9.3V9.09a.08.08,0,0,0,0,0s0,0,0-.05V6.23a3.23,3.23,0,0,0-.39-1.54A.64.64,0,0,0,44.22,4.56Z"/><path class="cls-1" d="M57.05,3H55.34V.87a.18.18,0,0,0-.18-.18H53.77a.18.18,0,0,0-.18.18V3H51.87a.19.19,0,0,0-.18.19V4.58a.18.18,0,0,0,.18.18h1.72V9a.18.18,0,0,0,.18.18h1.39A.18.18,0,0,0,55.34,9V4.76h1.71a.19.19,0,0,0,.19-.18V3.2A.2.2,0,0,0,57.05,3Z"/></g></g></svg>