<svg xmlns="http://www.w3.org/2000/svg" viewBox="0 0 56.94 11.59"><defs><style>.cls-1{fill:#0024bc;}</style></defs><g id="레이어_2" data-name="레이어 2"><g id="레이어_3" data-name="레이어 3"><rect class="cls-1" x="35.04" width="1.72" height="1.72" rx="0.18"/><rect class="cls-1" x="35.04" y="2.59" width="1.71" height="6.36" rx="0.18"/><path class="cls-1" d="M16.52,2.94a3,3,0,0,0-3,3.39A3.06,3.06,0,0,0,16.62,9h.16A.18.18,0,0,0,17,8.76V7.45a.18.18,0,0,0-.18-.19h-.23a1.32,1.32,0,0,1-1.32-1.32,1.31,1.31,0,0,1,1.32-1.32A1.38,1.38,0,0,1,17.94,6V8.76a.18.18,0,0,0,.18.19h1.34a.18.18,0,0,0,.18-.19V6.06A3.12,3.12,0,0,0,16.52,2.94Z"/><path class="cls-1" d="M6.12,3.08a3,3,0,0,0-3-3H.18A.18.18,0,0,0,0,.26V8.7a.18.18,0,0,0,.18.18H1.53a.18.18,0,0,0,.18-.18V6.09H3.34l.88,2.74A.17.17,0,0,0,4.39,9H5.8A.18.18,0,0,0,6,8.87a.16.16,0,0,0,0-.16l-1-3.24A3,3,0,0,0,6.12,3.08ZM1.71,1.77H3.09a1.32,1.32,0,1,1,0,2.64H1.71Z"/><path class="cls-1" d="M26.28.08H24.94a.18.18,0,0,0-.18.18V2.94H23.35a3,3,0,1,0,0,6h.25a.18.18,0,0,0,.18-.19V7.45a.18.18,0,0,0-.18-.19h-.23a1.32,1.32,0,0,1-1.32-1.32,1.31,1.31,0,0,1,1.32-1.32h1.39V8.76a.18.18,0,0,0,.18.19h1.34a.18.18,0,0,0,.18-.19V.26A.18.18,0,0,0,26.28.08Z"/><path class="cls-1" d="M34.16,7.24H29.93v-7a.18.18,0,0,0-.18-.18H28.41a.18.18,0,0,0-.19.18v8.5a.18.18,0,0,0,.19.19h5.75a.19.19,0,0,0,.19-.19V7.42A.19.19,0,0,0,34.16,7.24Z"/><rect class="cls-1" x="55.25" y="2.96" width="1.69" height="1.69" rx="0.18"/><path class="cls-1" d="M47,2.94a2.53,2.53,0,0,0-1,.19V.26a.19.19,0,0,0-.19-.18H44.45a.18.18,0,0,0-.18.18v8.5a.18.18,0,0,0,.18.19h1.34A.19.19,0,0,0,46,8.76V5.7a1.08,1.08,0,1,1,2.15,0V8.76a.18.18,0,0,0,.18.19h1.18a.19.19,0,0,0,.19-.19V5.65A2.71,2.71,0,0,0,47,2.94Z"/><path class="cls-1" d="M9.82,2.94a3,3,0,0,0-3,3V6a3,3,0,0,0,2,2.77,3,3,0,0,0,.83.17h3a.16.16,0,0,0,.16-.16V7.59a.16.16,0,0,0-.16-.16H9.53A1.52,1.52,0,0,1,8.44,6V5.94a1.38,1.38,0,0,1,2.5-.8v0a1.42,1.42,0,0,1,.19.47H9.67a.16.16,0,0,0-.16.16v.77a.16.16,0,0,0,.16.16h2.92a.17.17,0,0,0,.16-.13A3.08,3.08,0,0,0,12.82,6v0a2.52,2.52,0,0,0,0-.48A3,3,0,0,0,9.82,2.94Z"/><path class="cls-1" d="M43.09,4.44A2.74,2.74,0,0,0,42.74,4a.5.5,0,0,1-.08-.07,3.72,3.72,0,0,0-.52-.43A3,3,0,0,0,40.45,3a3,3,0,0,0-3,3.4A3.06,3.06,0,0,0,40.55,9h.15a.19.19,0,0,0,.19-.19V7.46a.19.19,0,0,0-.19-.19h-.22A1.33,1.33,0,0,1,39.15,6,1.31,1.31,0,0,1,39.54,5a1.37,1.37,0,0,1,2.32,1V8.77s0,0,0,.05a.05.05,0,0,0,0,0v.19a1.24,1.24,0,0,1-1.35,1.06,1.56,1.56,0,0,1-1-.33.34.34,0,0,1-.12-.12.17.17,0,0,0-.14-.07.24.24,0,0,0-.14.05l-.87.88a.16.16,0,0,0-.06.13.21.21,0,0,0,.07.13,3.32,3.32,0,0,0,2.23.81,2.83,2.83,0,0,0,3.06-2.52V8.86a.05.05,0,0,0,0,0s0,0,0-.05V6.07a3.07,3.07,0,0,0-.38-1.5A1.47,1.47,0,0,1,43.09,4.44Z"/><path class="cls-1" d="M54.24.68H52.9a.19.19,0,0,0-.19.18V2.94H50.56a.18.18,0,0,0-.19.18V4.46a.19.19,0,0,0,.19.19h2.15V8.76A.19.19,0,0,0,52.9,9h1.34a.18.18,0,0,0,.18-.19V.86A.18.18,0,0,0,54.24.68Z"/></g></g></svg>